<?xml version="1.0" encoding="utf-8"?>
<!-- Generator: Adobe Illustrator 25.4.1, SVG Export Plug-In . SVG Version: 6.00 Build 0)  -->
<svg version="1.1" id="Camada_1" xmlns="http://www.w3.org/2000/svg" xmlns:xlink="http://www.w3.org/1999/xlink" x="0px" y="0px"
	 viewBox="0 0 16 16" style="enable-background:new 0 0 16 16;" xml:space="preserve">
<style type="text/css">
	.st0{fill:#B6B6B6;}
</style>
<path class="st0" d="M4.5,9C5.3,9,6,8.3,6,7.5S5.3,6,4.5,6S3,6.7,3,7.5S3.7,9,4.5,9z"/>
<path class="st0" d="M14,13c0,1.1-0.9,2-2,2H2c-1.1,0-2-0.9-2-2V5c0-1.1,0.9-2,2-2c0-1.1,0.9-2,2-2h10c1.1,0,2,0.9,2,2v8
	C16,12.1,15.1,13,14,13z M14,2H4C3.4,2,3,2.4,3,3h9c1.1,0,2,0.9,2,2v7c0.6,0,1-0.4,1-1V3C15,2.4,14.6,2,14,2z M2,4C1.4,4,1,4.4,1,5
	v8l2.6-2.4c0.2-0.2,0.4-0.2,0.6-0.1l2.7,1.8l3.7-3.7c0.2-0.2,0.4-0.2,0.6-0.1l1.8,1.9V5c0-0.6-0.4-1-1-1C12,4,2,4,2,4z"/>
</svg>
