<?xml version="1.0" encoding="utf-8"?>
<!-- Generator: Adobe Illustrator 25.4.1, SVG Export Plug-In . SVG Version: 6.00 Build 0)  -->
<svg version="1.1" id="Camada_1" xmlns="http://www.w3.org/2000/svg" xmlns:xlink="http://www.w3.org/1999/xlink" x="0px" y="0px"
	 viewBox="0 0 50 50" style="enable-background:new 0 0 50 50;" xml:space="preserve">
<style type="text/css">
	.st0{fill:#F8EC3F;}
</style>
<g>
	<circle cx="25" cy="25" r="23.1"/>
	<path class="st0" d="M25.6,33.7c0.1,2.1,0.1,4.3,0.2,6.5c0.1,0,0.2-0.1,0.2-0.1c2.6-1.3,4.6-3.2,5.9-5.8c0.8-1.5,1.2-3.2,1.2-4.9
		c0-1.9-0.6-3.7-1.5-5.4c-0.2-0.3-0.3-0.7-0.5-1c-0.1-0.1-0.1-0.2,0-0.3c0.8-0.9,1.5-1.9,2.1-2.9c0.8-1.4,1.4-2.9,1.6-4.6
		c0.2-2.2-0.3-4.2-1.9-5.9c0,0-0.1-0.1-0.1-0.1c0.3,0.2,0.6,0.4,0.9,0.7c1.2,1,2.3,2.2,3.2,3.5c1.1,1.7,1.9,3.6,2,5.7
		c0.2,2.4-0.3,4.8-1.2,7c-0.4,0.8-0.8,1.6-1.2,2.5c0,0.1-0.1,0.1-0.1,0.2c0,0,0,0,0,0c0.1-0.1,0.2-0.3,0.4-0.4c1.3-1.4,2.4-3,3-4.8
		c0.8-2.3,0.9-4.7-0.2-7c0,0,0-0.1,0-0.1c0,0,0,0,0.1,0c0.2,0.3,0.4,0.7,0.6,1c0.7,1.3,1,2.7,1.2,4.1c0.3,2,0.2,4-0.3,6
		c-0.5,2.1-1.4,3.9-2.7,5.6c-0.1,0.1-0.1,0.1-0.1,0.2c0.9-0.7,1.5-1.5,2-2.4c0.5-0.9,1-1.9,1.5-2.8c-0.1,0.6-0.3,1.2-0.4,1.9
		c-0.7,2.4-1.8,4.5-3.4,6.3c-2.2,2.6-5.1,4.2-8.4,5c-1.2,0.3-2.5,0.5-3.8,0.5c-2.7,0.1-5.3-0.2-7.8-1.1c-2.4-0.9-4.4-2.2-6.2-4.1
		c-2.1-2.3-3.4-5.1-4-8.2c0-0.1,0-0.1,0-0.2c0-0.1,0-0.1,0-0.2c0.3,0.6,0.6,1.3,0.9,1.9c0.3,0.6,0.7,1.2,1.1,1.8
		c0.4,0.6,0.9,1.1,1.5,1.5c0-0.1-0.1-0.1-0.1-0.2c-1.8-2.2-2.8-4.8-3.1-7.6c-0.3-2.5,0-5,1-7.3c0.2-0.6,0.6-1.1,0.9-1.6
		c0-0.1,0.1-0.1,0.2-0.1c0,0.1,0,0.1-0.1,0.2c-0.9,2-1,4.1-0.4,6.3c0.5,1.8,1.5,3.4,2.7,4.8c0.3,0.4,0.6,0.7,0.9,1c0,0,0,0,0.1,0
		c0-0.1-0.1-0.2-0.1-0.3c-0.9-1.6-1.6-3.3-2-5.1c-0.6-2.4-0.5-4.8,0.3-7.2c0.6-1.7,1.5-3.1,2.7-4.4c0.8-0.9,1.6-1.6,2.5-2.3
		c0.1-0.1,0.1-0.1,0.2-0.1c-0.2,0.2-0.4,0.4-0.5,0.6c-1.1,1.5-1.5,3.2-1.4,5c0.1,1.8,0.8,3.4,1.6,4.9c0.6,1,1.3,2,2.1,2.9
		c0.1,0.1,0.1,0.2,0,0.4c-0.9,1.4-1.5,2.9-1.8,4.5c-0.5,2.8,0,5.5,1.6,7.9c1.3,1.9,2.9,3.4,5,4.5c0.2,0.1,0.3,0.2,0.5,0.2
		c0,0,0,0,0.1,0c0.1-2.2,0.1-4.3,0.2-6.5c0,0,0,0,0,0c-0.8,0.9-1.7,1.8-2.5,2.7c0,0,0,0,0,0c0.6-1.1,1.2-2.3,1.8-3.5
		c-1.6-0.2-3.1-0.5-4.6-0.7c0,0,0,0,0,0c1.5-0.2,3-0.5,4.5-0.7c-0.5-1.3-0.9-2.7-1.4-4c0,0,0,0,0,0c0.8,1.1,1.5,2.2,2.3,3.3
		c0,0,0,0,0.1,0c0.2-7.5,0.4-15,0.5-22.5c0,0,0,0,0,0c0.2,7.5,0.4,15,0.5,22.5c0,0,0,0,0.1,0c0.7-1.1,1.5-2.2,2.2-3.2c0,0,0,0,0.1,0
		c-0.5,1.3-0.9,2.6-1.4,3.9c1.5,0.2,3,0.5,4.5,0.7c0,0,0,0,0,0c-1.5,0.2-3,0.5-4.6,0.7c0.6,1.2,1.2,2.3,1.8,3.4c0,0,0,0,0,0
		C27.3,35.4,26.5,34.6,25.6,33.7C25.7,33.7,25.7,33.7,25.6,33.7z"/>
</g>
</svg>
